HIERARCHY
ROOT Yihan_28_06:Solving:Hips
{
	OFFSET 0.000000 0.000000 0.000000
	CHANNELS 6 Xposition Yposition Zposition Xrotation Yrotation Zrotation
	JOINT Yihan_28_06:Solving:Spine
	{
		OFFSET 0.000000 -10.933681 1.754050
		CHANNELS 6 Xposition Yposition Zposition Xrotation Yrotation Zrotation
		JOINT Yihan_28_06:Solving:Spine1
		{
			OFFSET 0.000000 -9.267541 1.634120
			CHANNELS 6 Xposition Yposition Zposition Xrotation Yrotation Zrotation
			JOINT Yihan_28_06:Solving:Spine2
			{
				OFFSET 0.000000 -9.374699 0.820182
				CHANNELS 6 Xposition Yposition Zposition Xrotation Yrotation Zrotation
				JOINT Yihan_28_06:Solving:Spine3
				{
					OFFSET 0.000000 -9.410507 0.000000
					CHANNELS 6 Xposition Yposition Zposition Xrotation Yrotation Zrotation
					JOINT Yihan_28_06:Solving:Neck
					{
						OFFSET 0.000000 -12.099224 -1.209920
						CHANNELS 6 Xposition Yposition Zposition Xrotation Yrotation Zrotation
						JOINT Yihan_28_06:Solving:Neck1
						{
							OFFSET 0.000000 -7.349789 -0.643021
							CHANNELS 6 Xposition Yposition Zposition Xrotation Yrotation Zrotation
							JOINT Yihan_28_06:Solving:Head
							{
								OFFSET 0.000000 -7.265778 -1.281152
								CHANNELS 6 Xposition Yposition Zposition Xrotation Yrotation Zrotation
								JOINT Yihan_28_06:Solving:HeadEnd
								{
									OFFSET 0.000000 -9.728081 0.000002
									CHANNELS 6 Xposition Yposition Zposition Xrotation Yrotation Zrotation
									End Site
									{
										OFFSET 0.000000 -9.728081 0.000002
									}
								}
							}
						}
					}
					JOINT Yihan_28_06:Solving:RightShoulder
					{
						OFFSET 0.000000 -8.642303 -5.270916
						CHANNELS 6 Xposition Yposition Zposition Xrotation Yrotation Zrotation
						JOINT Yihan_28_06:Solving:RightArm
						{
							OFFSET -17.619331 -0.000004 0.000000
							CHANNELS 6 Xposition Yposition Zposition Xrotation Yrotation Zrotation
							JOINT Yihan_28_06:Solving:RightForeArm
							{
								OFFSET -29.732449 -0.000008 0.000000
								CHANNELS 6 Xposition Yposition Zposition Xrotation Yrotation Zrotation
								JOINT Yihan_28_06:Solving:RightHand
								{
									OFFSET -23.617275 -0.000008 0.000000
									CHANNELS 6 Xposition Yposition Zposition Xrotation Yrotation Zrotation
									JOINT Yihan_28_06:Solving:RightHandThumb1
									{
										OFFSET -3.546165 2.953053 -2.636890
										CHANNELS 6 Xposition Yposition Zposition Xrotation Yrotation Zrotation
										End Site
										{
											OFFSET -5.198463 0.000000 -5.246530
										}
									}
									JOINT Yihan_28_06:Solving:RightHandMiddle1
									{
										OFFSET -9.456436 -0.000004 0.060618
										CHANNELS 6 Xposition Yposition Zposition Xrotation Yrotation Zrotation
										End Site
										{
											OFFSET -7.385803 -0.000004 0.000000
										}
									}
								}
							}
						}
					}
					JOINT Yihan_28_06:Solving:LeftShoulder
					{
						OFFSET 0.000000 -8.642303 -5.270916
						CHANNELS 6 Xposition Yposition Zposition Xrotation Yrotation Zrotation
						JOINT Yihan_28_06:Solving:LeftArm
						{
							OFFSET 17.619331 -0.000004 0.000000
							CHANNELS 6 Xposition Yposition Zposition Xrotation Yrotation Zrotation
							JOINT Yihan_28_06:Solving:LeftForeArm
							{
								OFFSET 29.732449 -0.000008 0.000000
								CHANNELS 6 Xposition Yposition Zposition Xrotation Yrotation Zrotation
								JOINT Yihan_28_06:Solving:LeftHand
								{
									OFFSET 23.617275 -0.000008 0.000000
									CHANNELS 6 Xposition Yposition Zposition Xrotation Yrotation Zrotation
									JOINT Yihan_28_06:Solving:LeftHandThumb1
									{
										OFFSET 3.546165 2.953053 -2.636890
										CHANNELS 6 Xposition Yposition Zposition Xrotation Yrotation Zrotation
										End Site
										{
											OFFSET 5.198463 0.000000 -5.246530
										}
									}
									JOINT Yihan_28_06:Solving:LeftHandMiddle1
									{
										OFFSET 9.456436 -0.000004 0.060618
										CHANNELS 6 Xposition Yposition Zposition Xrotation Yrotation Zrotation
										End Site
										{
											OFFSET 7.385803 -0.000004 0.000000
										}
									}
								}
							}
						}
					}
				}
			}
		}
	}
	JOINT Yihan_28_06:Solving:RightUpLeg
	{
		OFFSET -12.221851 0.000000 0.000000
		CHANNELS 6 Xposition Yposition Zposition Xrotation Yrotation Zrotation
		JOINT Yihan_28_06:Solving:RightLeg
		{
			OFFSET 0.000000 44.387260 -0.000006
			CHANNELS 6 Xposition Yposition Zposition Xrotation Yrotation Zrotation
			JOINT Yihan_28_06:Solving:RightFoot
			{
				OFFSET 0.000000 37.410240 -0.000006
				CHANNELS 6 Xposition Yposition Zposition Xrotation Yrotation Zrotation
				JOINT Yihan_28_06:Solving:RightForeFoot
				{
					OFFSET 0.000000 4.107742 -0.000000
					CHANNELS 6 Xposition Yposition Zposition Xrotation Yrotation Zrotation
					JOINT Yihan_28_06:Solving:RightToeBase
					{
						OFFSET 0.000000 0.000000 -16.087208
						CHANNELS 6 Xposition Yposition Zposition Xrotation Yrotation Zrotation
						JOINT Yihan_28_06:Solving:RightToeBaseEnd
						{
							OFFSET 0.000000 0.000000 -3.506769
							CHANNELS 6 Xposition Yposition Zposition Xrotation Yrotation Zrotation
							End Site
							{
								OFFSET 0.000000 -3.506767 0.000000
							}
						}
					}
				}
			}
		}
	}
	JOINT Yihan_28_06:Solving:LeftUpLeg
	{
		OFFSET 12.221851 0.000000 0.000000
		CHANNELS 6 Xposition Yposition Zposition Xrotation Yrotation Zrotation
		JOINT Yihan_28_06:Solving:LeftLeg
		{
			OFFSET 0.000000 44.387260 -0.000006
			CHANNELS 6 Xposition Yposition Zposition Xrotation Yrotation Zrotation
			JOINT Yihan_28_06:Solving:LeftFoot
			{
				OFFSET 0.000000 37.410240 -0.000006
				CHANNELS 6 Xposition Yposition Zposition Xrotation Yrotation Zrotation
				JOINT Yihan_28_06:Solving:LeftForeFoot
				{
					OFFSET 0.000000 4.107742 -0.000000
					CHANNELS 6 Xposition Yposition Zposition Xrotation Yrotation Zrotation
					JOINT Yihan_28_06:Solving:LeftToeBase
					{
						OFFSET 0.000000 0.000000 -16.087208
						CHANNELS 6 Xposition Yposition Zposition Xrotation Yrotation Zrotation
						JOINT Yihan_28_06:Solving:LeftToeBaseEnd
						{
							OFFSET 0.000000 0.000000 -3.932585
							CHANNELS 6 Xposition Yposition Zposition Xrotation Yrotation Zrotation
							End Site
							{
								OFFSET 0.000000 -3.932587 0.000000
							}
						}
					}
				}
			}
		}
	}
}
MOTION
Frames: 4
Frame Time: 0.041667
8.636553 -67.274750 -89.776039 85.291256 -13.574960 0.449593 0.000004 -10.933651 1.754059 10.866024 0.282701 -1.384437 -0.000001 -9.267534 1.634121 -0.941333 0.010083 -0.394138 -0.000002 -9.374704 0.820190 -1.972827 -3.491898 -0.787874 0.000000 -9.410522 0.000006 1.238405 -0.133502 -1.085903 0.000001 -12.099237 -1.209965 -7.635116 -3.722394 0.380722 0.000001 -7.349809 -0.643009 4.871266 2.075076 -0.792775 0.000006 -7.265807 -1.281118 11.971672 0.161032 -1.002827 -0.000002 -9.728073 0.000010 0.000001 -0.000003 0.000001 0.000005 -8.642303 -5.270955 -0.000006 13.200865 8.445155 -17.619335 0.000025 -0.000006 -36.163205 19.650451 -80.626326 -29.732409 -0.000019 0.000012 -75.366623 -11.311722 -36.914720 -23.617273 -0.000007 -0.000005 -1.402081 -3.417987 -22.320011 -3.546160 2.953057 -2.636891 0.000002 0.000003 -0.000003 -9.456437 0.000022 0.060614 0.000000 -0.000000 -0.000001 0.000004 -8.642303 -5.270955 -0.000007 -13.782899 -8.446828 17.619339 -0.000004 0.000008 -1.127881 56.719349 79.343616 29.732470 -0.000009 -0.000018 3.829402 29.763468 -1.903052 23.617283 -0.000010 0.000008 -1.426144 -11.832301 -6.922660 3.546182 2.953032 -2.636890 -0.000005 0.000003 0.000003 9.456480 -0.000012 0.060618 -0.000006 -0.000001 -0.000003 -12.221848 0.000028 0.000004 5.379528 0.960189 -3.540138 0.000002 44.387268 -0.000003 -0.648677 0.000002 0.000000 0.000003 37.410244 -0.000005 2.294099 13.269123 0.445848 -0.000000 4.107750 0.000005 -0.000001 0.000000 0.000000 -0.000001 0.000002 -16.087212 17.294650 -0.000001 -0.000000 -0.000000 0.000009 -3.506778 0.000004 0.000000 0.000000 12.221854 0.000021 0.000001 10.673221 -10.035288 -4.172336 0.000000 44.387253 -0.000005 -3.577611 0.000004 -0.000000 0.000007 37.410236 -0.000012 -0.231110 6.419197 9.192916 -0.000001 4.107735 -0.000001 0.000000 0.000001 -0.000000 -0.000001 -0.000004 -16.087206 -6.637553 0.000006 -0.000001 -0.000003 -0.000007 -3.932578 0.000000 0.000005 -0.000000 
8.657939 -67.293747 -89.774551 85.281428 -13.418718 0.467131 0.000005 -10.933692 1.754046 10.880117 0.283816 -1.389026 0.000005 -9.267546 1.634114 -0.938169 0.010744 -0.394761 -0.000000 -9.374688 0.820184 -1.976714 -3.476799 -0.786201 -0.000001 -9.410498 0.000009 1.218698 -0.132180 -1.074114 0.000007 -12.099258 -1.209916 -7.582002 -3.738169 0.343096 0.000000 -7.349754 -0.643034 4.895562 1.989822 -0.816814 -0.000001 -7.265798 -1.281143 12.020660 0.160909 -1.064557 -0.000003 -9.728073 0.000004 0.000000 -0.000002 0.000000 0.000007 -8.642326 -5.270928 -0.000003 13.276859 8.587111 -17.619335 -0.000046 0.000002 -36.536987 19.696572 -80.625390 -29.732431 -0.000011 -0.000010 -74.896999 -11.688884 -36.895586 -23.617279 -0.000009 -0.000014 -1.364440 -3.321606 -22.347168 -3.546174 2.953047 -2.636880 0.000000 0.000005 -0.000000 -9.456450 0.000014 0.060621 0.000003 -0.000000 0.000001 0.000006 -8.642326 -5.270929 -0.000005 -13.788007 -8.394870 17.619331 -0.000007 -0.000001 -0.935473 56.874777 79.232967 29.732456 -0.000001 -0.000001 3.626808 29.603163 -1.793342 23.617264 -0.000013 -0.000004 -1.347273 -11.821889 -6.548638 3.546171 2.953032 -2.636890 -0.000007 0.000002 0.000007 9.456470 -0.000003 0.060613 -0.000002 -0.000000 0.000004 -12.221848 -0.000019 -0.000001 5.338212 0.934424 -3.530851 -0.000001 44.387260 -0.000005 -0.591611 0.000001 -0.000000 -0.000002 37.410267 -0.000012 2.283540 13.158395 0.457506 -0.000001 4.107758 0.000015 -0.000000 0.000000 -0.000000 -0.000000 0.000006 -16.087214 17.282571 -0.000001 -0.000000 0.000000 -0.000007 -3.506765 0.000001 0.000000 -0.000000 12.221853 0.000002 -0.000010 10.703403 -10.063713 -4.152711 0.000002 44.387260 -0.000016 -3.564335 -0.000002 0.000000 0.000009 37.410236 0.000008 -0.263375 6.315010 9.191723 0.000003 4.107742 0.000013 0.000000 0.000001 -0.000001 0.000003 0.000016 -16.087217 -6.591143 0.000004 -0.000001 -0.000002 0.000000 -3.932592 0.000000 0.000001 -0.000000 
8.678697 -67.317657 -89.772728 85.276879 -13.250087 0.483807 0.000001 -10.933684 1.754050 10.887187 0.285007 -1.385706 0.000000 -9.267547 1.634123 -0.934157 0.011739 -0.396267 0.000006 -9.374693 0.820188 -1.978398 -3.467068 -0.783286 0.000003 -9.410508 -0.000006 1.212090 -0.131988 -1.057099 -0.000006 -12.099223 -1.209915 -7.553043 -3.744069 0.314783 -0.000006 -7.349777 -0.643028 4.924214 1.906440 -0.866440 -0.000001 -7.265774 -1.281148 12.060157 0.161337 -1.116900 0.000000 -9.728088 0.000005 -0.000001 0.000002 0.000000 -0.000006 -8.642323 -5.270916 -0.000005 13.330239 8.728511 -17.619339 -0.000042 -0.000001 -36.884832 19.624138 -80.571616 -29.732443 -0.000012 0.000007 -74.516182 -12.026916 -36.949923 -23.617270 -0.000026 -0.000020 -1.347058 -3.293747 -22.258512 -3.546143 2.953044 -2.636903 -0.000004 0.000003 0.000000 -9.456429 0.000002 0.060611 -0.000000 -0.000000 0.000000 -0.000007 -8.642323 -5.270916 -0.000006 -13.771410 -8.336959 17.619329 -0.000001 -0.000008 -0.701921 57.179895 79.107920 29.732449 -0.000011 -0.000020 3.929552 29.346779 -1.928073 23.617296 -0.000019 0.000008 -1.372301 -11.832727 -6.663364 3.546212 2.953055 -2.636894 -0.000004 0.000009 0.000002 9.456480 0.000003 0.060605 0.000005 0.000003 -0.000002 -12.221851 -0.000013 -0.000015 5.262643 0.853666 -3.518332 -0.000003 44.387283 -0.000002 -0.490039 -0.000002 0.000000 0.000002 37.410244 0.000007 2.250399 13.088765 0.474288 -0.000000 4.107750 -0.000002 -0.000000 0.000000 0.000000 -0.000001 -0.000007 -16.087200 17.355869 -0.000001 -0.000000 -0.000000 0.000009 -3.506766 0.000003 -0.000000 0.000000 12.221857 -0.000005 0.000016 10.724221 -10.111749 -4.128801 0.000002 44.387268 -0.000009 -3.547460 -0.000001 0.000000 0.000007 37.410255 -0.000013 -0.292940 6.217821 9.187311 0.000006 4.107742 -0.000005 -0.000000 -0.000001 0.000000 0.000011 -0.000004 -16.087212 -6.557137 0.000000 0.000001 0.000008 -0.000008 -3.932577 0.000001 -0.000002 -0.000001 
8.699817 -67.343346 -89.771835 85.270745 -13.071605 0.499903 0.000000 -10.933679 1.754044 10.892987 0.284384 -1.378375 -0.000004 -9.267533 1.634114 -0.933182 0.012724 -0.400335 -0.000001 -9.374722 0.820186 -1.973196 -3.461471 -0.776652 0.000001 -9.410532 0.000015 1.218755 -0.135781 -1.042389 -0.000007 -12.099244 -1.209908 -7.551956 -3.741830 0.302387 -0.000003 -7.349803 -0.643032 4.962497 1.834200 -0.922637 -0.000007 -7.265788 -1.281165 12.088798 0.161183 -1.169620 0.000000 -9.728081 0.000002 -0.000001 0.000002 0.000000 -0.000002 -8.642307 -5.270912 -0.000002 13.385771 8.866921 -17.619337 -0.000015 -0.000006 -37.244468 19.464902 -80.472722 -29.732464 -0.000008 0.000005 -74.211023 -12.318075 -37.033631 -23.617294 -0.000024 -0.000003 -1.328481 -3.266333 -22.147433 -3.546173 2.953043 -2.636904 -0.000010 0.000007 0.000000 -9.456458 -0.000002 0.060593 -0.000003 -0.000003 0.000001 -0.000005 -8.642307 -5.270911 -0.000006 -13.765597 -8.273435 17.619324 0.000014 -0.000005 -0.521777 57.430239 78.998419 29.732447 -0.000008 -0.000005 4.036186 29.088307 -1.964624 23.617310 -0.000009 -0.000011 -1.356891 -11.825024 -6.593352 3.546155 2.953045 -2.636883 0.000007 -0.000009 0.000006 9.456445 -0.000010 0.060621 0.000002 -0.000000 0.000002 -12.221846 -0.000009 0.000002 5.207985 0.836017 -3.503108 0.000000 44.387264 -0.000003 -0.426072 -0.000002 -0.000000 -0.000001 37.410255 -0.000013 2.247758 12.938227 0.492260 0.000001 4.107742 -0.000020 -0.000000 0.000000 0.000000 0.000001 -0.000009 -16.087240 17.284678 -0.000001 -0.000000 -0.000001 0.000001 -3.506768 0.000004 0.000000 -0.000000 12.221851 0.000004 -0.000010 10.766767 -10.083792 -4.101016 0.000011 44.387280 0.000002 -3.557918 0.000006 -0.000000 -0.000005 37.410263 -0.000005 -0.305185 6.034072 9.182286 -0.000000 4.107742 0.000009 0.000000 0.000004 -0.000000 -0.000004 0.000003 -16.087215 -6.526531 0.000002 0.000000 -0.000004 -0.000001 -3.932580 -0.000001 0.000003 -0.000003 
